<svg width="33" height="39" viewBox="0 0 33 39" fill="none" xmlns="http://www.w3.org/2000/svg">
<path d="M29.9997 6.00009H26.9999V3.0003C26.9999 1.35028 25.6502 0.000523167 24.0001 0.000523167L2.99978 0C1.34975 0 0 1.34975 0 2.99978V30.0002C0 31.6503 1.34975 33 2.99978 33H5.99956V35.9998C5.99956 37.6498 7.34932 38.9996 8.99935 38.9996H29.9997C31.6497 38.9996 32.9995 37.6498 32.9995 35.9998L33 9.00068C33 7.35066 31.6502 6.00037 30.0002 6.00037L29.9997 6.00009ZM5.9993 9.00041V30.0008H2.99951L2.99899 3.0003H23.9993V6.00009H8.99909C7.34907 6.00009 5.99931 7.35038 5.99931 9.00041H5.9993ZM29.9997 36.0009H8.99935V9.00041H29.9997V36.0009Z" fill="#111111"/>
</svg>
